<svg xmlns="http://www.w3.org/2000/svg"  viewBox="0 0 50 50" width="50px" height="50px"><path d="M1.999,25.001	c0-12.696,10.303-23,23-23c12.696,0,23,10.304,23,23c0,12.697-10.304,23-23,23C12.302,48.001,1.999,37.698,1.999,25.001z M38.999,33.001c0-1.396-0.532-3.059-1.351-4.423l-0.215-0.324l0.336-0.257c1.965-1.605,4.229-4.791,4.229-10.996	c0-0.551-0.449-1-1-1c-5.011,0-9.436,1.632-12.819,4.177l1.664-2.644c0.295-0.467,0.155-1.084-0.313-1.379	c-0.467-0.295-1.084-0.155-1.379,0.313l-2.155,3.421v-3.889c0-0.551-0.449-1-1-1c-0.552,0-1,0.449-1,1v4.467	c-2.025-3.864-5.419-7.08-10.593-9.38c-0.469-0.208-1.02-0.028-1.275,0.417c-0.727,1.272-1.497,2.38-2.081,3.505	c-0.612,1.177-1.049,2.431-1.049,3.991c0,1.737,1.069,3.745,2.171,5.292l0.301,0.403l-0.239,0.132	c-0.477,0.273-0.98,0.588-1.427,0.941c-0.904,0.715-1.807,1.761-1.807,3.232c0,4.107,3.084,8,8,8c2.491,0,4.136-2.348,6.123-3.224	l-0.283,1.539c-0.1,0.543,0.259,1.064,0.803,1.164c0.543,0.1,1.064-0.259,1.164-0.803l0.311-1.691	c0.665,0.759,1.215,1.925,1.728,2.755c0.971,1.571,2.384,3.26,5.155,3.26C35.202,40.001,38.999,37.319,38.999,33.001z"/></svg>